<?xml version="1.0" encoding="UTF-8"?>
<svg width="37.822mm" height="35.801mm" version="1.1" viewBox="0 0 37.822 35.801" xmlns="http://www.w3.org/2000/svg" xmlns:cc="http://creativecommons.org/ns#" xmlns:dc="http://purl.org/dc/elements/1.1/" xmlns:rdf="http://www.w3.org/1999/02/22-rdf-syntax-ns#">
 <metadata>
  <rdf:RDF>
   <cc:Work rdf:about="">
    <dc:format>image/svg+xml</dc:format>
    <dc:type rdf:resource="http://purl.org/dc/dcmitype/StillImage"/>
    <dc:title/>
   </cc:Work>
  </rdf:RDF>
 </metadata>
 <g transform="translate(-24.052 -40.052)">
  <path d="m47.452 51.72c2.0122 1.9122 2.9091 3.8755 2.6853 6.4699-0.07461 0.83945-0.29299 1.6782-0.64134 2.4456-0.48306 1.0642-0.93298 1.9588-1.7072 2.8343-1.0622 1.2012-2.5233 2.382-3.8817 3.2339-0.82909 0.51992-1.7599 0.88362-2.702 1.1483-1.1112 0.31209-2.273 0.55872-3.4258 0.50313-2.7908 0.0866-7.7077-2.4943-7.7077-2.4943s2.1495 4.6655 3.3733 6.124c0.6116 0.70856 1.3313 1.3318 2.1052 1.8582 0.81304 0.55294 1.6987 1.0185 2.6281 1.3394 0.87089 0.30071 1.7984 0.41543 2.7124 0.53152 0.7536 0.0957 1.5156 0.155 2.275 0.13453 0.80644-0.0219 1.6179-0.0948 2.4048-0.27261 0.72548-0.16391 1.4414-0.40008 2.1098-0.72628 0.66646-0.32525 1.4054-0.7761 2.0038-1.2141 0.7323-0.536 1.3375-1.071 1.966-1.7257 0.67182-0.6998 1.2355-1.5025 1.7529-2.3231 0.36862-0.58464 0.70196-1.1972 0.95511-1.8403 0.24967-0.63423 0.41908-1.3007 0.54798-1.9701 0.1617-0.83915 0.27254-1.694 0.27944-2.5485 0.0073-0.90547-0.07939-1.8159-0.25247-2.7048-0.1976-1.0148-0.44895-2.0363-0.89152-2.9706-1.2906-2.4684-4.0968-5.7748-6.5893-5.8326z" fill="#1a1a1a"/>
  <path d="m48.639 62.301c-1.9122 2.0121-4.3293 3.4341-6.9236 3.2103-0.83947-0.0745-1.6782-0.29299-2.4456-0.64131-1.0642-0.48305-2.0266-1.1932-2.9021-1.9674-1.2012-1.0622-2.3143-2.2631-3.1662-3.6215-0.51995-0.82907-0.88363-1.7599-1.1483-2.702-0.31212-1.1112-0.55874-2.273-0.50316-3.4258-0.08665-2.7908 2.4943-7.7077 2.4943-7.7077s-4.6655 2.1495-6.124 3.3733c-0.70856 0.61159-1.3318 1.3313-1.8582 2.1052-0.55294 0.81304-1.0185 1.6987-1.3394 2.6281-0.3007 0.8709-0.41544 1.7984-0.53153 2.7124-0.09571 0.7536-0.15494 1.5156-0.13453 2.275 0.02171 0.80646 0.09482 1.6179 0.2726 2.4048 0.1639 0.72546 0.40008 1.4414 0.72628 2.1098 0.32525 0.66647 0.77475 1.2668 1.2128 1.8652 0.53601 0.7323 1.0724 1.4761 1.727 2.1046 0.69979 0.6718 1.5026 1.2354 2.3231 1.7528 0.58462 0.36862 1.1972 0.70195 1.8403 0.95511 0.63426 0.24962 1.3008 0.41906 1.9701 0.54805 0.83924 0.16129 1.694 0.27259 2.5485 0.27945 0.90548 7e-3 1.8169-0.0745 2.7047-0.25249 2.2678-0.45446 3.152-1.073 4.0863-1.5155 2.4684-1.2907 5.1719-5.5066 5.1706-6.4904z" fill="#7fff2a"/>
  <path d="m38.489 64.184c-2.0122-1.9122-2.9091-3.8755-2.6853-6.4699 0.07454-0.83947 0.29299-1.6782 0.6413-2.4456 0.48306-1.0642 1.1932-2.0266 1.9674-2.9021 1.0622-1.2012 2.2631-2.3143 3.6215-3.1662 0.82909-0.51994 1.7598-0.88362 2.702-1.1483 1.1112-0.31209 2.273-0.55872 3.4258-0.50314 2.7909-0.0866 7.6964 2.7527 7.6964 2.7527s-2.1382-4.9239-3.362-6.3824c-0.6116-0.70856-1.3313-1.3318-2.1053-1.8582-0.81304-0.55295-1.6987-1.0185-2.6281-1.3394-0.87089-0.30071-1.7984-0.41543-2.7124-0.53152-0.75361-0.0957-1.5156-0.155-2.275-0.13453-0.80645 0.0219-1.6179 0.0948-2.4048 0.27261-0.72548 0.16391-1.4414 0.40008-2.1098 0.72628-0.66646 0.32525-1.2668 0.77474-1.8652 1.2128-0.73229 0.53602-1.4761 1.0724-2.1046 1.727-0.67182 0.6998-1.2355 1.5025-1.7529 2.3231-0.36862 0.58462-0.70195 1.1972-0.95512 1.8403-0.24962 0.63426-0.41904 1.3008-0.54804 1.9701-0.16133 0.83922-0.2726 1.6939-0.27944 2.5485-0.0073 0.90547 0.07941 1.8159 0.25248 2.7047 0.1976 1.0148 0.44895 2.0363 0.89152 2.9706 1.2906 2.4684 5.8967 6.8538 8.3892 6.9115z" fill="#1a1a1a"/>
  <path d="m37.673 53.265c1.9122-2.0122 3.9445-2.7626 6.5388-2.5388 0.83947 0.0745 1.6782 0.29301 2.4456 0.6413 1.0642 0.48308 2.0266 1.1932 2.9021 1.9674 1.2012 1.0622 2.3143 2.2631 3.1662 3.6215 0.51995 0.82909 0.88363 1.7598 1.1483 2.702 0.31212 1.1112 0.55874 2.273 0.50316 3.4258 0.08665 2.7909-1.9296 7.9144-1.9296 7.9144s4.1008-2.3561 5.5593-3.5799c0.70856-0.61161 1.3318-1.3313 1.8582-2.1053 0.55294-0.81303 1.0185-1.6987 1.3394-2.6281 0.30069-0.87087 0.41543-1.7984 0.53153-2.7124 0.09571-0.75361 0.15494-1.5156 0.13455-2.275-0.02171-0.80643-0.09482-1.6179-0.2726-2.4048-0.16392-0.7255-0.40008-1.4414-0.72628-2.1098-0.32525-0.66645-0.77475-1.2668-1.2128-1.8652-0.53601-0.73228-1.0724-1.4761-1.727-2.1046-0.69979-0.67182-1.5026-1.2355-2.3231-1.7529-0.58462-0.36862-1.1972-0.70195-1.8403-0.95512-0.63426-0.24962-1.3007-0.41903-1.9701-0.54802-0.83923-0.16129-1.694-0.27261-2.5485-0.27945-0.90548-7e-3 -1.8159 0.0794-2.7047 0.25248-1.0148 0.19761-2.0363 0.44895-2.9706 0.89151-1.861 0.9731-4.1985 2.8077-5.2608 4.7199-0.34667 0.62398-0.62649 1.1098-0.64069 1.7231z" fill="#f00"/>
  <text x="76.230537" y="170.48694" fill="#ff0000" font-family="sans-serif" font-size="4.5861px" letter-spacing="1.5214px" stroke-width=".26458" word-spacing="-.10848px" style="line-height:1.25" xml:space="preserve"><tspan x="76.230537" y="170.48694" fill="#ff0000" font-family="Arvo" font-size="4.5861px" stroke-width=".26458"/></text>
 </g>
</svg>
