<?xml version="1.0" standalone="no"?>
<!DOCTYPE svg PUBLIC "-//W3C//DTD SVG 20010904//EN"
 "http://www.w3.org/TR/2001/REC-SVG-20010904/DTD/svg10.dtd">
<svg version="1.0" xmlns="http://www.w3.org/2000/svg"
 width="1500.000000pt" height="1500.000000pt" viewBox="0 0 1500.000000 1500.000000"
 preserveAspectRatio="xMidYMid meet">
<metadata>
Created by potrace 1.11, written by Peter Selinger 2001-2013
</metadata>
<g transform="translate(0.000000,1500.000000) scale(0.100000,-0.100000)"
fill="#000000" stroke="none">
<path d="M11255 12951 c-50 -22 -111 -90 -154 -170 -69 -131 -110 -260 -286
-911 -71 -263 -160 -540 -220 -685 -67 -160 -132 -280 -248 -451 -62 -93 -126
-193 -143 -221 -16 -29 -31 -53 -34 -53 -3 0 -43 45 -90 101 -243 289 -620
557 -1020 727 -810 344 -1997 411 -2971 167 -1154 -290 -2070 -978 -2565
-1929 -376 -723 -469 -1573 -260 -2392 102 -401 304 -801 576 -1144 181 -227
499 -518 753 -689 285 -191 641 -356 1077 -499 740 -243 1630 -380 2160 -331
233 21 511 94 680 179 l78 39 88 -107 c144 -172 254 -319 254 -336 0 -3 -339
-6 -753 -6 -644 0 -761 -2 -812 -15 -167 -44 -299 -172 -351 -344 -18 -57 -18
-195 0 -252 52 -172 184 -300 351 -344 49 -12 133 -15 467 -15 l408 0 -30 -46
c-16 -26 -34 -70 -41 -99 -12 -54 -8 -236 6 -267 7 -17 -30 -18 -686 -18 -783
0 -792 -1 -889 -67 -70 -49 -134 -141 -150 -220 -20 -92 -9 -237 22 -304 31
-68 86 -131 145 -165 93 -55 65 -54 1183 -54 1148 0 1103 -2 1205 66 62 41 96
82 133 162 24 52 27 68 26 172 0 63 -6 127 -12 142 l-12 28 350 0 350 0 4 -22
c3 -13 8 -40 11 -60 8 -50 60 -116 114 -145 l44 -23 686 0 c774 0 732 -4 802
79 87 101 79 272 -17 361 -24 22 -56 45 -70 50 -14 6 -140 10 -282 10 l-257 0
3 132 c4 152 -11 213 -72 284 l-33 39 60 35 c247 145 313 486 136 711 l-28 36
35 49 c193 271 328 633 375 1009 22 175 11 631 -17 726 -3 10 17 32 57 65 66
52 137 143 169 216 54 122 77 324 50 439 -22 96 -79 198 -150 270 -36 36 -77
74 -92 85 l-28 19 85 400 c101 480 109 537 95 673 -19 183 -74 339 -171 489
l-40 61 20 109 c27 146 67 423 88 618 12 118 17 251 17 505 1 373 -5 448 -55
705 -70 357 -59 646 56 1380 69 442 78 519 79 690 1 188 -13 252 -70 315 -54
59 -118 73 -189 41z m-30 -297 c8 -4 23 -20 31 -36 14 -26 13 -41 -11 -176
-60 -342 -178 -839 -270 -1142 -71 -235 -134 -399 -212 -554 -61 -121 -106
-186 -194 -276 -189 -195 -348 -549 -470 -1047 -23 -92 -48 -175 -56 -185 -37
-41 -112 -28 -134 23 -15 39 3 132 77 389 132 462 270 737 471 946 117 121
193 266 294 564 115 337 221 753 314 1240 36 189 46 227 65 242 22 18 65 23
95 12z m-3375 -1379 c625 -66 1105 -221 1515 -487 214 -138 434 -342 583 -539
l73 -96 -46 -111 c-109 -267 -222 -610 -290 -885 -20 -78 -40 -159 -46 -179
-8 -30 -22 -45 -81 -85 -185 -122 -333 -312 -407 -518 -12 -33 -60 -240 -106
-459 -47 -220 -88 -403 -92 -406 -5 -4 -64 -22 -133 -40 -242 -63 -523 -167
-735 -272 -211 -105 -349 -201 -485 -338 -128 -128 -190 -221 -236 -355 -24
-69 -28 -96 -28 -190 0 -60 6 -130 13 -155 38 -137 145 -295 266 -393 126
-102 317 -198 479 -240 82 -21 86 -23 86 -50 0 -107 70 -303 160 -451 l59 -96
-37 -19 c-120 -61 -364 -123 -557 -142 -303 -30 -888 28 -1374 136 -490 109
-1023 290 -1381 470 -423 212 -840 582 -1113 985 -579 854 -643 2042 -163
2999 160 318 327 544 610 826 253 252 477 421 781 591 514 287 1142 466 1800
514 181 13 704 4 885 -15z m2708 -2124 c173 -37 247 -61 332 -108 135 -73 244
-182 307 -307 l25 -49 -59 51 c-80 70 -206 144 -306 180 -98 36 -463 117 -611
137 -152 20 -310 3 -471 -50 -17 -6 -16 -3 5 15 83 72 228 139 343 160 94 16
279 4 435 -29z m-282 -502 c75 -70 4 -206 -96 -184 -94 21 -112 153 -28 202
32 18 95 9 124 -18z m-441 7 c59 -25 74 -88 30 -131 -19 -20 -34 -25 -72 -25
-140 0 -186 -99 -298 -630 -42 -201 -81 -387 -87 -413 l-10 -49 -37 7 c-20 4
-57 11 -82 16 l-45 10 87 415 c48 229 95 439 105 467 44 137 137 272 215 313
64 33 142 41 194 20z m-277 -1591 c274 -57 733 -154 1022 -214 289 -61 541
-115 561 -121 80 -22 160 -122 179 -221 12 -62 -9 -187 -41 -251 -39 -77 -113
-129 -212 -150 -49 -10 -80 -5 -487 81 -1417 300 -1650 351 -1688 370 -86 44
-152 152 -152 250 0 59 24 161 49 209 43 83 147 149 239 151 19 1 257 -46 530
-104z m-1094 -77 c-39 -140 -25 -310 35 -429 l30 -60 -55 -80 c-98 -144 -196
-363 -240 -537 l-19 -73 -35 6 c-63 12 -207 71 -280 115 -103 62 -194 155
-233 238 -28 58 -32 78 -32 148 0 73 3 87 39 159 67 135 229 283 450 410 58
33 326 154 343 155 8 0 7 -14 -3 -52z m347 -722 c36 -13 94 -30 129 -36 36 -7
68 -15 72 -19 3 -3 -8 -31 -26 -61 -42 -72 -100 -209 -122 -290 -26 -92 -26
-339 -1 -429 27 -98 90 -223 165 -330 74 -104 125 -186 165 -267 l26 -51 -29
-22 c-40 -29 -70 -92 -77 -158 -3 -29 -9 -56 -13 -58 -4 -3 -27 21 -51 53 -24
31 -101 126 -171 210 -293 349 -381 505 -395 698 -13 188 87 512 225 726 20
32 38 58 38 58 1 0 30 -11 65 -24z m618 -141 c118 -25 216 -47 218 -49 2 -2
-3 -21 -12 -42 -58 -136 -79 -260 -72 -423 4 -104 11 -149 41 -256 60 -212 93
-421 110 -688 5 -83 14 -84 -179 21 l-140 75 -62 126 c-34 70 -95 175 -135
234 -114 168 -146 226 -175 312 -23 69 -27 97 -27 205 -1 139 12 203 67 330
45 103 117 211 137 205 8 -2 111 -25 229 -50z m661 -139 c190 -40 245 -55 243
-66 -1 -8 -18 -60 -37 -115 -68 -191 -93 -460 -67 -690 5 -44 12 -120 15 -170
l6 -90 -47 -32 c-27 -18 -93 -76 -148 -129 -87 -84 -142 -124 -173 -124 -5 0
-12 57 -16 128 -14 256 -50 476 -113 696 -34 119 -37 142 -38 256 0 135 10
188 57 313 25 64 33 77 51 76 12 0 132 -24 267 -53z m590 -124 l124 -27 10
-45 c4 -25 9 -151 10 -280 1 -181 -3 -262 -17 -350 -34 -216 -99 -460 -124
-460 -25 0 -74 30 -145 91 -39 32 -85 64 -103 70 l-31 12 -19 234 c-16 198
-17 250 -7 347 14 128 46 266 88 374 28 71 29 72 59 66 16 -3 86 -18 155 -32z
m364 -79 c14 -46 26 -323 20 -453 -4 -86 -2 -159 3 -180 11 -40 -18 -207 -59
-341 -21 -65 -27 -76 -58 -91 -19 -9 -50 -19 -69 -23 -32 -7 -34 -6 -27 16 99
350 139 665 120 952 l-9 137 37 0 c26 0 38 -5 42 -17z"/>
<path d="M7658 11039 c-386 -30 -733 -183 -989 -438 -117 -117 -188 -216 -254
-354 -158 -329 -152 -714 16 -1050 141 -282 405 -538 702 -681 493 -238 1087
-238 1547 0 386 200 644 528 716 911 21 111 21 320 0 425 -50 255 -175 489
-367 685 -290 296 -649 460 -1095 503 -119 11 -120 11 -276 -1z m441 -243 c28
-15 51 -53 51 -86 0 -64 -54 -100 -149 -100 -163 0 -418 -46 -568 -103 -305
-115 -501 -324 -563 -602 -31 -141 -32 -243 -4 -485 6 -51 4 -59 -21 -88 -22
-27 -34 -32 -69 -32 -41 0 -67 16 -90 58 -17 29 -36 195 -36 308 0 305 92 552
279 747 153 159 337 260 597 327 213 55 517 85 573 56z"/>
<path d="M4901 9919 c-101 -13 -251 -55 -350 -98 -145 -62 -254 -135 -361
-241 -158 -157 -257 -331 -295 -519 -23 -114 -16 -314 15 -421 43 -148 156
-331 271 -436 158 -144 412 -261 641 -295 104 -15 379 -6 468 16 265 64 483
184 642 354 272 288 350 664 208 1006 -182 436 -704 703 -1239 634z m298 -149
c243 -25 468 -129 624 -287 160 -163 232 -333 231 -548 0 -224 -85 -407 -270
-586 -345 -331 -922 -394 -1340 -144 -196 117 -322 272 -385 475 -19 61 -24
98 -24 200 0 145 12 201 66 318 52 113 111 193 212 288 191 180 438 276 758
293 15 0 72 -4 128 -9z"/>
<path d="M6519 8700 c-9 -5 -22 -23 -28 -38 -15 -35 -2 -72 56 -160 163 -245
463 -421 822 -481 190 -32 598 -26 693 11 53 20 62 102 14 133 -19 13 -35 14
-92 5 -123 -18 -362 -24 -486 -11 -395 41 -701 210 -850 471 -18 30 -39 60
-47 67 -19 15 -60 16 -82 3z"/>
<path d="M4845 7675 c-376 -68 -673 -326 -756 -655 -20 -78 -18 -260 4 -339
41 -151 135 -298 253 -395 82 -68 261 -159 369 -188 68 -19 107 -22 260 -22
211 -1 285 14 442 89 323 153 513 425 513 735 0 330 -220 613 -575 739 -137
48 -359 64 -510 36z m76 -273 c24 -22 31 -36 31 -65 0 -52 -23 -82 -79 -102
-169 -60 -234 -99 -282 -169 -44 -64 -54 -108 -49 -210 4 -74 12 -108 41 -182
42 -104 45 -141 17 -177 -27 -35 -70 -43 -115 -22 -41 20 -80 93 -117 220 -32
114 -32 273 1 368 55 160 188 275 396 343 93 31 118 30 156 -4z"/>
<path d="M6213 6251 c-174 -50 -318 -172 -374 -319 -12 -33 -24 -90 -27 -135
-25 -398 455 -637 845 -421 245 136 333 420 200 647 -59 101 -198 198 -332
232 -80 20 -233 18 -312 -4z"/>
</g>
</svg>
