<?xml version="1.0" standalone="no"?>
<!DOCTYPE svg PUBLIC "-//W3C//DTD SVG 20010904//EN"
 "http://www.w3.org/TR/2001/REC-SVG-20010904/DTD/svg10.dtd">
<svg version="1.0" xmlns="http://www.w3.org/2000/svg"
 width="1500.000000pt" height="1500.000000pt" viewBox="0 0 1500.000000 1500.000000"
 preserveAspectRatio="xMidYMid meet">
<metadata>
Created by potrace 1.11, written by Peter Selinger 2001-2013
</metadata>
<g transform="translate(0.000000,1500.000000) scale(0.100000,-0.100000)"
fill="#000000" stroke="none">
<path d="M6038 14176 c-1 -2 -42 -6 -89 -10 -48 -3 -93 -8 -100 -10 -8 -3 -30
-7 -49 -10 -81 -12 -153 -30 -277 -71 -306 -102 -551 -262 -748 -490 -27 -32
-55 -63 -60 -69 -17 -19 -86 -117 -105 -150 -76 -133 -94 -166 -120 -222 -50
-109 -115 -287 -135 -370 -14 -60 -34 -155 -40 -194 -11 -72 -14 -320 -4 -380
5 -30 11 -66 13 -80 14 -91 67 -245 120 -344 32 -60 109 -173 151 -221 19 -22
35 -42 35 -45 0 -3 -18 -63 -41 -135 -22 -71 -43 -139 -46 -150 -3 -11 -23
-78 -45 -150 -22 -71 -41 -134 -42 -140 0 -5 -23 -15 -51 -23 -153 -40 -294
-199 -430 -486 -51 -106 -138 -348 -151 -420 -3 -16 -6 -32 -8 -35 -4 -6 -84
-308 -91 -341 -2 -8 -33 -132 -69 -275 -58 -232 -161 -657 -172 -710 -3 -17
-11 -52 -20 -87 -1 -5 -2 -9 -4 -10 -1 -2 -3 -12 -5 -23 -2 -17 -20 -92 -62
-265 -9 -39 -9 -37 -43 -180 -17 -74 -34 -146 -36 -160 -3 -14 -7 -32 -9 -40
-2 -8 -7 -30 -10 -49 -3 -19 -8 -37 -10 -41 -2 -3 -20 -78 -40 -165 -20 -88
-47 -205 -60 -260 -13 -55 -26 -111 -29 -125 -5 -31 -33 -156 -81 -360 -19
-85 -45 -195 -56 -245 -11 -49 -22 -97 -24 -105 -6 -26 -265 -1184 -269 -1205
-3 -11 -11 -49 -20 -85 -8 -36 -17 -76 -20 -90 -3 -14 -10 -43 -15 -65 -5 -22
-12 -53 -15 -70 -7 -38 -32 -152 -51 -230 -8 -33 -17 -72 -19 -88 -3 -15 -7
-35 -10 -45 -3 -9 -7 -28 -10 -42 -2 -14 -10 -47 -16 -75 -6 -27 -14 -61 -16
-75 -3 -14 -9 -41 -14 -60 -5 -19 -11 -46 -14 -60 -2 -14 -14 -65 -25 -115
-12 -49 -24 -101 -27 -115 -3 -14 -9 -41 -14 -60 -5 -19 -12 -51 -15 -70 -3
-19 -8 -42 -10 -50 -2 -8 -7 -35 -10 -60 -4 -24 -8 -47 -10 -50 -2 -3 -6 -34
-10 -70 -4 -36 -8 -72 -10 -80 -3 -18 -15 -139 -21 -206 -5 -67 -5 -351 0
-394 3 -19 7 -48 10 -65 3 -16 8 -43 12 -60 9 -49 49 -141 75 -173 61 -74 156
-89 254 -41 109 53 288 269 427 514 100 177 246 487 277 590 7 22 21 58 31 81
10 22 48 112 85 200 36 87 72 173 80 189 29 66 185 437 185 440 0 3 11 28 24
57 21 46 96 226 267 638 22 52 44 104 49 115 5 11 43 103 85 205 42 102 80
194 85 205 5 11 19 45 31 75 12 30 27 69 34 85 17 39 92 223 166 405 33 80 64
154 69 165 19 39 498 1241 510 1280 7 22 16 45 19 50 4 6 20 44 35 85 15 41
45 120 66 175 88 228 110 286 155 410 26 72 58 157 71 190 12 33 26 74 30 90
4 17 10 35 14 40 4 6 19 46 34 90 14 44 37 114 51 155 93 275 129 479 128 725
0 225 -49 440 -123 544 -11 16 -20 37 -20 46 0 16 49 185 89 305 10 30 26 82
36 115 9 33 26 89 38 125 11 36 20 70 20 76 0 6 12 11 26 12 14 0 62 13 106
28 352 118 587 371 671 723 4 14 8 87 10 161 3 131 -6 205 -36 310 -7 25 -14
50 -16 55 -4 18 -56 159 -69 190 -248 556 -289 689 -281 915 4 123 27 205 83
298 36 58 127 162 143 162 18 0 50 40 50 62 0 50 -30 58 -247 63 -83 2 -153 2
-155 1z"/>
<path d="M8997 10664 c-1 -1 -56 -5 -122 -8 -66 -4 -133 -9 -150 -11 -16 -2
-59 -6 -95 -10 -36 -3 -72 -8 -80 -10 -8 -2 -35 -7 -60 -10 -62 -8 -101 -14
-130 -20 -51 -10 -76 -15 -101 -20 -52 -10 -267 -64 -354 -89 -336 -99 -723
-276 -1015 -464 -57 -37 -291 -202 -300 -211 -3 -4 -27 -24 -55 -45 -78 -62
-227 -200 -330 -305 -308 -317 -557 -671 -762 -1086 -35 -71 -64 -130 -63
-130 1 0 -12 -31 -30 -70 -44 -97 -45 -100 -79 -190 -71 -186 -80 -213 -96
-270 -10 -33 -20 -64 -23 -70 -4 -5 -8 -14 -9 -20 -7 -32 -24 -91 -47 -169
-14 -48 -28 -98 -31 -110 -3 -11 -16 -68 -30 -126 -13 -58 -27 -116 -29 -130
-3 -14 -10 -47 -16 -75 -6 -27 -13 -59 -14 -70 -2 -11 -8 -47 -14 -80 -6 -33
-14 -73 -16 -90 -33 -199 -30 -181 -40 -275 -4 -36 -9 -76 -11 -90 -2 -14 -7
-61 -10 -105 -4 -44 -8 -98 -11 -120 -6 -63 -17 -361 -17 -465 0 -102 11 -399
18 -465 12 -123 16 -163 19 -190 15 -124 18 -152 22 -169 2 -11 6 -38 9 -61
23 -154 66 -361 115 -540 22 -82 42 -158 45 -167 13 -55 108 -327 114 -324 3
2 7 -7 8 -21 2 -33 109 -284 199 -463 64 -128 92 -181 164 -305 24 -43 140
-222 175 -273 98 -142 316 -419 355 -452 3 -3 41 -45 85 -95 112 -128 106
-121 197 -219 46 -49 105 -110 132 -135 27 -25 70 -66 95 -91 25 -25 71 -65
101 -90 30 -25 61 -51 68 -58 72 -68 346 -260 487 -341 50 -28 97 -56 105 -61
15 -9 186 -93 265 -130 211 -98 571 -201 785 -225 30 -3 62 -8 70 -10 45 -13
406 -20 495 -10 22 2 60 7 85 9 166 19 412 83 565 149 39 16 86 36 105 44 19
8 76 35 125 60 402 205 658 471 784 815 23 63 50 156 57 195 2 15 7 39 9 53
38 198 34 503 -11 820 -20 145 -26 186 -40 265 -9 50 -17 101 -19 115 -2 14
-10 66 -19 115 -8 50 -18 115 -22 145 -4 30 -8 57 -9 60 -1 3 -5 37 -9 75 -4
39 -9 83 -12 98 -12 76 -11 316 2 379 30 140 110 275 244 408 74 73 92 89 215
182 79 60 284 198 294 198 4 0 16 9 26 20 10 11 22 20 27 20 15 0 356 234 477
327 215 167 417 384 541 583 71 113 154 297 175 388 3 9 15 58 28 107 13 50
24 92 24 95 1 3 4 37 8 75 4 39 9 79 12 90 5 25 5 443 -1 470 -2 11 -7 60 -11
109 -4 50 -8 97 -10 105 -4 25 -14 92 -20 141 -3 25 -8 52 -10 60 -2 8 -7 31
-10 50 -35 209 -138 554 -225 755 -45 106 -135 285 -198 393 -51 89 -194 305
-243 366 -5 6 -20 26 -35 44 -14 17 -31 29 -36 25 -7 -3 -8 -1 -4 6 4 6 1 17
-6 25 -7 7 -28 32 -46 55 -19 22 -38 38 -43 35 -5 -3 -8 -1 -7 4 3 9 -71 100
-192 236 -80 91 -253 260 -335 326 -44 35 -82 67 -85 70 -10 11 -146 107 -230
161 -243 158 -481 272 -740 354 -164 52 -201 63 -235 70 -16 3 -41 8 -55 11
-14 3 -41 9 -60 14 -30 8 -181 31 -290 45 -99 12 -512 28 -523 19z"/>
</g>
</svg>
