<?xml version="1.0" encoding="utf-8"?>
<!-- Generator: Adobe Illustrator 24.1.3, SVG Export Plug-In . SVG Version: 6.00 Build 0)  -->
<svg version="1.1" id="fe1bd44d-772d-49e6-8ede-d714f2b892c4"
	 xmlns="http://www.w3.org/2000/svg" xmlns:xlink="http://www.w3.org/1999/xlink" x="0px" y="0px" viewBox="0 0 872.2 646.3"
	 style="enable-background:new 0 0 872.2 646.3;" xml:space="preserve">
<style type="text/css">
	.st0{fill:#E6E6E6;}
	.st1{fill:#FFFFFF;}
	.st2{opacity:0.2;enable-background:new    ;}
	.st3{fill:#E6E6E6;stroke:#808080;stroke-miterlimit:10;}
	.st4{fill:#6C63FF;}
</style>
<rect x="110.2" class="st0" width="2" height="187"/>
<path class="st0" d="M1.2,103.4c-0.7,0-1.2,0.5-1.2,1.2v157.8c0,0.7,0.5,1.2,1.2,1.2H221c0.7,0,1.2-0.5,1.2-1.2V104.6
	c0-0.7-0.5-1.2-1.2-1.2L1.2,103.4z"/>
<path class="st1" d="M208.9,116.4v112.1c0,1.6-1.3,2.8-2.8,2.8H15.7c-0.1,0-0.3,0-0.4,0c-1.4-0.2-2.4-1.4-2.4-2.8V116.4
	c0-1.6,1.3-2.8,2.8-2.8h190.4C207.6,113.5,208.9,114.8,208.9,116.4L208.9,116.4L208.9,116.4z"/>
<path class="st0" d="M138.6,231.8H17c-0.2,0-0.3,0-0.5,0l57.5-99.5c1.1-1.9,3.5-2.6,5.5-1.5c0.6,0.4,1.2,0.9,1.5,1.5l38.6,66.8
	l1.8,3.2L138.6,231.8z"/>
<polygon class="st2" points="138.6,231.8 97.1,231.8 117.4,202.2 118.9,200.1 119.6,199 121.5,202.2 "/>
<path class="st0" d="M206.2,231.8H101.1l20.4-29.6l1.5-2.1l26.5-38.5c1.8-2.3,5.2-2.7,7.5-0.9c0.1,0.1,0.3,0.2,0.4,0.4
	c0.1,0.2,0.3,0.3,0.4,0.5L206.2,231.8z"/>
<circle class="st1" cx="111.2" cy="107" r="4"/>
<rect x="435.2" class="st3" width="2" height="187"/>
<path class="st0" d="M326.2,103.4c-0.7,0-1.2,0.5-1.2,1.2v157.8c0,0.7,0.5,1.2,1.2,1.2H546c0.7,0,1.2-0.5,1.2-1.2V104.6
	c0-0.7-0.5-1.2-1.2-1.2L326.2,103.4z"/>
<path class="st1" d="M533.9,116.4v112.1c0,1.6-1.3,2.8-2.8,2.8l0,0H340.7c-0.1,0-0.3,0-0.4,0c-1.4-0.2-2.4-1.4-2.4-2.8V116.4
	c0-1.6,1.3-2.8,2.8-2.8h190.4C532.6,113.5,533.9,114.8,533.9,116.4L533.9,116.4z"/>
<path class="st4" d="M463.6,231.8H342c-0.2,0-0.3,0-0.5,0l57.5-99.5c1.1-1.9,3.5-2.6,5.5-1.5c0.6,0.4,1.2,0.9,1.5,1.5l38.6,66.8
	l1.8,3.2L463.6,231.8z"/>
<polygon class="st2" points="463.5,231.8 422.1,231.8 442.4,202.2 443.9,200.1 444.6,199 446.5,202.2 "/>
<path class="st4" d="M531.2,231.8H426.1l20.4-29.6l1.5-2.1l26.5-38.5c1.8-2.3,5.2-2.7,7.5-0.9c0.1,0.1,0.3,0.2,0.4,0.4
	c0.1,0.2,0.3,0.3,0.4,0.5L531.2,231.8z"/>
<circle class="st1" cx="436.2" cy="107" r="4"/>
<rect x="760.2" class="st0" width="2" height="187"/>
<path class="st0" d="M651.2,103.4c-0.7,0-1.2,0.5-1.2,1.2v157.8c0,0.7,0.5,1.2,1.2,1.2H871c0.7,0,1.2-0.5,1.2-1.2V104.6
	c0-0.7-0.5-1.2-1.2-1.2L651.2,103.4z"/>
<path class="st1" d="M858.9,116.4v112.1c0,1.6-1.3,2.8-2.8,2.8l0,0H665.7c-0.1,0-0.3,0-0.4,0c-1.4-0.2-2.4-1.4-2.4-2.8V116.4
	c0-1.6,1.3-2.8,2.8-2.8h190.4C857.6,113.5,858.9,114.8,858.9,116.4L858.9,116.4z"/>
<path class="st0" d="M788.6,231.8H667c-0.2,0-0.3,0-0.5,0l57.5-99.5c1.1-1.9,3.5-2.6,5.5-1.5c0.6,0.4,1.2,0.9,1.5,1.5l38.6,66.8
	l1.8,3.2L788.6,231.8z"/>
<polygon class="st2" points="788.5,231.8 747.1,231.8 767.4,202.2 768.9,200.1 769.6,199 771.5,202.2 "/>
<path class="st0" d="M856.2,231.8H751.1l20.4-29.6l1.5-2.1l26.5-38.5c1.8-2.3,5.2-2.7,7.5-0.9c0.1,0.1,0.3,0.2,0.4,0.4
	c0.1,0.2,0.3,0.3,0.4,0.5L856.2,231.8z"/>
<circle class="st1" cx="761.2" cy="107" r="4"/>
<path class="st0" d="M123.8,288.7v26.5c0,0.4-0.3,0.7-0.7,0.7c0,0,0,0,0,0h-45c0,0-0.1,0-0.1,0c-0.3,0-0.6-0.3-0.6-0.7v-26.5
	c0-0.4,0.3-0.7,0.7-0.7l0,0h45C123.5,288,123.8,288.3,123.8,288.7L123.8,288.7L123.8,288.7z"/>
<path class="st4" d="M459.8,288.7v26.5c0,0.4-0.3,0.7-0.7,0.7l0,0h-45c0,0-0.1,0-0.1,0c-0.3,0-0.6-0.3-0.6-0.7v-26.5
	c0-0.4,0.3-0.7,0.7-0.7l0,0h45C459.5,288,459.8,288.3,459.8,288.7C459.8,288.7,459.8,288.7,459.8,288.7L459.8,288.7z"/>
<path class="st0" d="M784.8,288.7v26.5c0,0.4-0.3,0.7-0.7,0.7l0,0h-45c0,0-0.1,0-0.1,0c-0.3,0-0.6-0.3-0.6-0.7v-26.5
	c0-0.4,0.3-0.7,0.7-0.7l0,0h45C784.5,288,784.8,288.3,784.8,288.7C784.8,288.7,784.8,288.7,784.8,288.7L784.8,288.7z"/>
</svg>
