<?xml version="1.0" encoding="UTF-8"?>
<svg width="105.83mm" height="95.657mm" version="1.1" viewBox="0 0 105.83 95.657" xmlns="http://www.w3.org/2000/svg" xmlns:cc="http://creativecommons.org/ns#" xmlns:dc="http://purl.org/dc/elements/1.1/" xmlns:rdf="http://www.w3.org/1999/02/22-rdf-syntax-ns#">
 <defs>
  <linearGradient id="linearGradient1049" x1="-29.633" x2="-5.5562" y1="52.388" y2="118.53" gradientTransform="matrix(1 0 0 .90385 207.48 56.157)" gradientUnits="userSpaceOnUse">
   <stop stop-color="#3264c8" offset="0"/>
   <stop stop-color="#dc1e82" offset="1"/>
  </linearGradient>
  <radialGradient id="radialGradient889-5" cx="95.749" cy="179.54" r="52.917" gradientTransform="matrix(.62016 -.97725 1.0177 .52762 -61.87 218.34)" gradientUnits="userSpaceOnUse">
   <stop stop-color="#ffc84b" offset="0"/>
   <stop stop-color="#ff963e" stop-opacity=".49804" offset=".8"/>
   <stop stop-color="#ff6432" stop-opacity="0" offset="1"/>
  </radialGradient>
 </defs>
 <metadata>
  <rdf:RDF>
   <cc:Work rdf:about="">
    <dc:format>image/svg+xml</dc:format>
    <dc:type rdf:resource="http://purl.org/dc/dcmitype/StillImage"/>
    <dc:title/>
   </cc:Work>
  </rdf:RDF>
 </metadata>
 <g transform="translate(-157.47 -125.99)">
  <path d="m181.29 125.99h58.208c13.192 0 23.812 9.5989 23.812 21.523v52.612c0 11.924-10.62 21.523-23.812 21.523h-58.208c-13.192 0-23.812-9.5989-23.812-21.523v-52.612c0-11.924 10.62-21.523 23.812-21.523z" fill="url(#linearGradient1049)" stroke-width=".25154"/>
  <path d="m181.29 125.99h58.208c13.192 0 23.812 9.5989 23.812 21.523v52.612c0 11.924-10.62 21.523-23.812 21.523h-58.208c-13.192 0-23.812-9.5989-23.812-21.523v-52.612c0-11.924 10.62-21.523 23.812-21.523z" fill="url(#radialGradient889-5)" opacity=".994" stroke-width=".25154"/>
  <g>
   <path d="m242.5 151.1a3.9237 3.5465 0 0 1-3.9237 3.5465 3.9237 3.5465 0 0 1-3.9237-3.5465 3.9237 3.5465 0 0 1 3.9237-3.5465 3.9237 3.5465 0 0 1 3.9237 3.5465" fill="#fff" opacity=".994" stroke-width=".20651"/>
   <path d="m187.86 136.48h45.061c10.401 0 18.775 7.5687 18.775 16.97v40.729c0 9.401-8.3738 16.97-18.775 16.97h-45.061c-10.401 0-18.775-7.5687-18.775-16.97v-40.729c0-9.401 8.3738-16.97 18.775-16.97z" fill-opacity="0" opacity=".994" stroke="#fff" stroke-width="7.9375"/>
   <path d="m235.53 173.82a25.135 22.718 0 0 1-25.135 22.718 25.135 22.718 0 0 1-25.135-22.718 25.135 22.718 0 0 1 25.135-22.718 25.135 22.718 0 0 1 25.135 22.718" fill="none" opacity=".994" stroke="#fff" stroke-width="7.9375"/>
  </g>
 </g>
</svg>
