<?xml version="1.0" encoding="UTF-8" standalone="no"?>
<svg
   xmlns:dc="http://purl.org/dc/elements/1.1/"
   xmlns:cc="http://creativecommons.org/ns#"
   xmlns:rdf="http://www.w3.org/1999/02/22-rdf-syntax-ns#"
   xmlns:svg="http://www.w3.org/2000/svg"
   xmlns="http://www.w3.org/2000/svg"
   xmlns:sodipodi="http://sodipodi.sourceforge.net/DTD/sodipodi-0.dtd"
   xmlns:inkscape="http://www.inkscape.org/namespaces/inkscape"
   inkscape:version="1.0 (4035a4fb49, 2020-05-01)"
   sodipodi:docname="snapchat.svg"
   id="svg2282"
   viewBox="0 0 105.83 95.657"
   version="1.1"
   height="95.657mm"
   width="105.83mm">
  <defs
     id="defs2286" />
  <sodipodi:namedview
     inkscape:current-layer="svg2282"
     inkscape:window-maximized="1"
     inkscape:window-y="-8"
     inkscape:window-x="1358"
     inkscape:cy="180.76913"
     inkscape:cx="199.9937"
     inkscape:zoom="1.3663837"
     showgrid="false"
     id="namedview2284"
     inkscape:window-height="1057"
     inkscape:window-width="1920"
     inkscape:pageshadow="2"
     inkscape:pageopacity="0"
     guidetolerance="10"
     gridtolerance="10"
     objecttolerance="10"
     borderopacity="1"
     bordercolor="#666666"
     pagecolor="#ffffff" />
  <metadata
     id="metadata2274">
    <rdf:RDF>
      <cc:Work
         rdf:about="">
        <dc:format>image/svg+xml</dc:format>
        <dc:type
           rdf:resource="http://purl.org/dc/dcmitype/StillImage" />
        <dc:title />
      </cc:Work>
    </rdf:RDF>
  </metadata>
  <rect
     ry="16.796623"
     y="9.1009693"
     x="13.94191"
     height="78.229607"
     width="77.648697"
     id="rect2348"
     style="opacity:0.994;fill:#ffffff;stroke-width:0.264583" />
  <g
     id="g2280"
     transform="translate(-37.833 -92.492)">
    <path
       id="path2276"
       fill="#ffee2a"
       d="m-90.188 90.635c-49.86 0-89.998 36.28-89.998 81.346v198.85c0 45.066 40.139 81.346 89.998 81.346h220c49.86 0 89.998-36.28 89.998-81.346v-198.85c0-45.066-40.139-81.346-89.998-81.346zm110.12 44.402c1.4819 0.0116 3.0848 0.0397 4.8398 0.0801 14.239 0.32806 20.077 1.3684 30.236 5.3926 17.44 6.9079 31.518 20.389 39.936 38.238 5.3437 11.331 6.235 17.884 5.6426 41.518-0.24643 9.8254-0.49554 18.834-0.55469 20.02l-0.10938 2.1562 2.6348-0.16797c1.4492-0.0918 4.7135-0.99278 7.2539-2.002 5.6006-2.2248 10.376-2.418 15.191-0.61523 6.4691 2.4221 10.34 7.1893 10.34 12.73 0 7.9834-6.5549 13.47-22.287 18.654-6.7157 2.2131-10.749 4.7771-11.363 7.2246-1.2781 5.0927 9.5118 23.036 20.199 33.59 9.8207 9.6978 20.806 15.511 35.264 18.662 2.5726 0.56073 5.7257 3.9605 6.2461 6.7344 1.0276 5.4777-2.9026 11.06-10.395 14.762-4.4924 2.2197-14.995 5.256-22.748 6.5762-2.2885 0.38971-4.3324 0.98468-4.541 1.3223-0.20863 0.33751-0.89449 2.9696-1.5234 5.8477-1.3753 6.2932-2.9655 9.0599-6.1367 10.678-2.8116 1.4344-5.8954 1.52-12.59 0.34961-11.755-2.0555-21.167-1.7649-28.207 0.86914-1.9463 0.72824-8.3064 4.5354-14.133 8.4609-18.31 12.337-25.613 14.962-41.436 14.893-6.9629-0.0302-10.441-0.33487-14.119-1.2383-7.1657-1.76-14.735-5.6325-26.732-13.678-5.8675-3.9345-12.236-7.7418-14.152-8.459-6.9242-2.5906-16.854-2.8905-27.846-0.84375-9.258 1.7239-13.772 0.83877-16.432-3.2207-0.60373-0.92141-1.7958-4.4654-2.6504-7.875l-1.5547-6.1992-6.4668-1.3144c-9.7461-1.9827-15.844-3.8066-20.77-6.209-7.4519-3.6348-11.398-9.2368-10.369-14.721 0.52036-2.7738 3.6735-6.1736 6.2461-6.7344 14.993-3.2679 25.396-8.9216 35.842-19.479 6.3056-6.3726 11.401-13.142 15.605-20.732 5.2514-9.4794 5.4567-12.345 1.1094-15.494-1.3706-0.99288-5.1765-2.6904-8.457-3.7715-15.732-5.1845-22.287-10.671-22.287-18.654 0-5.5411 3.8707-10.308 10.34-12.73 4.6591-1.7444 8.465-1.5665 14.061 0.65625 2.6888 1.0681 6.0757 1.9298 7.8691 2.002l3.1504 0.12696-0.10547-2.4648c-0.05703-1.3552-0.30506-10.367-0.55273-20.027-0.59712-23.294 0.30641-29.898 5.6367-41.201 9.3749-19.88 26.182-34.428 46.615-40.35 9.4295-2.7326 13.887-3.4428 24.26-3.3613zm-25.438 48.695c-0.20811 0.0358-0.24109 0.20125-0.17383 0.4082 0.084696-0.13483 0.17013-0.26855 0.25391-0.40429-0.023795 1e-3 -0.059582-7e-3 -0.080078-4e-3zm64.172 25.391c-0.0036 0.0101 0.0076 0.0336 0.03516 0.0742 0.12022 0.17734 0.19744 0.27361 0.31055 0.4375-0.04237-0.12854-0.0805-0.25826-0.12305-0.38672-0.11346-0.0804-0.21448-0.1478-0.22266-0.125zm-107.49 52.865c-0.02528 7e-3 -0.05353 0.0328-0.08008 0.0508 4.84e-4 0.15155-0.01849 0.29834-0.05664 0.43946 0.0061 0.0129 0.01146 0.0262 0.01758 0.0391 0.05487-0.0785 0.12411-0.15775 0.17383-0.23633 0.0434-0.0686 0.09123-0.13434 0.13477-0.20313-0.05803-0.0719-0.12073-0.11103-0.18945-0.0898zm19.338 39.578c-0.0781 0.0742-0.15626 0.14844-0.23438 0.22265 0.05403-0.0345 0.10805-0.0691 0.16211-0.10351 0.02313-0.0382 0.04907-0.0809 0.07227-0.11914zm80.096 8.6875c0.0602-0.0507-0.89574 0.43089-2.1035 1.1113-0.0051 0.0252-6e-3 0.0464-0.01172 0.0723 0.54355-0.31649 1.1061-0.63476 1.6953-0.94922 0.26858-0.14334 0.39998-0.21759 0.41992-0.23437zm-4.7773 2.7461c-0.28852 0.19455-0.55335 0.38355-0.80273 0.57227-7.71e-4 0.0117-0.0012 0.0234-2e-3 0.0351 0.26049-0.17222 0.5704-0.36564 0.85352-0.54883-0.01497-0.0205-0.03398-0.038-0.04883-0.0586zm26.75 11.457c-0.02571 0.053-0.02867 0.0528-0.07227 0.14649-0.09032 0.1941-0.16111 0.39711-0.24219 0.5957 0.05343-0.10381 0.1348-0.26327 0.18555-0.36133 0.0311-0.0661 0.06442-0.13105 0.0957-0.19727 0.02734-0.0743 0.02211-0.0719 0.04297-0.13085-0.0044-0.0174-0.0054-0.0354-0.0098-0.0527zm73.959 17.15c-0.0598 0.0125-0.13229 0.0411-0.2168 0.0879-0.076 0.0421-0.14476 0.0925-0.21484 0.14063 0.18063-0.0763 0.36572-0.15289 0.51562-0.22461-0.0266-3e-3 -0.05-0.01-0.084-4e-3zm-27.77 2.9082c-0.0148 0.0548-0.0304 0.10924-0.0449 0.16407 0.10672 0.16517 0.18509 0.29484 0.2832 0.44922 0.0592-0.0456 0.11685-0.0939 0.17773-0.13672-0.14022-0.15779-0.27294-0.32051-0.41601-0.47657zm-159.64 15.697c0.08231 0.19523 0.15943 0.39247 0.23633 0.58984 0.0033 2e-3 0.0065 4e-3 0.0098 6e-3 0.01927-0.20555 0.03435-0.36056 0.05078-0.52734-0.10142-0.0243-0.1877-0.0389-0.29688-0.0684zm133.7 2.5449c-0.01551-5e-3 -0.04869 0.0147-0.10156 0.0645-0.1885 0.17752-0.35156 0.3803-0.51953 0.57812 0.10559 1.9e-4 0.21072 3e-3 0.31641 4e-3 0.21006-0.33158 0.35736-0.63045 0.30469-0.64649zm-138.59 0.48242c-0.01572 0.0132-0.07102 0.0619-0.08789 0.0762-0.0019 8e-3 -0.0039 0.0196-0.0059 0.0273 0.04444 7.4e-4 0.08658-2.5e-4 0.13086 2e-3 -0.01294-0.0349-0.02403-0.0706-0.03711-0.10547zm51.773 2.6641c0.049886 0.0726 0.10279 0.14187 0.15234 0.21484 0.075242-0.0708 0.13626-0.13808 0.20508-0.20703-0.11916-3e-3 -0.23825-5e-3 -0.35742-8e-3zm10.08 0.33203c0.20093 0.1777 0.38331 0.39005 0.5625 0.60937-0.01147-0.0274-0.01737-0.0568-0.0293-0.084-0.10002-0.22833-0.71992-0.69052-0.5332-0.52539z"
       transform="matrix(.26458 0 0 .26458 85.508 68.512)" />
    <path
       id="path2278"
       stroke-width=".16298"
       d="m87.511 174.28c-1.8959-0.46567-3.8982-1.4901-7.0726-3.6188-1.5524-1.041-3.2376-2.048-3.7447-2.2377-1.832-0.68544-4.4592-0.7652-7.3675-0.22366-2.4495 0.45611-3.6435 0.22212-4.3472-0.85195-0.15974-0.24379-0.47542-1.1814-0.70152-2.0835l-0.4111-1.6402-1.7113-0.34815c-2.5786-0.5246-4.1922-1.0069-5.4954-1.6425-1.9717-0.96171-3.0156-2.4437-2.7434-3.8947 0.13768-0.73391 0.97222-1.6336 1.6529-1.782 3.9669-0.86464 6.7192-2.3603 9.483-5.1535 1.6684-1.6861 3.0166-3.4772 4.1291-5.4854 1.3894-2.5081 1.4438-3.2667 0.29352-4.0999-0.36265-0.2627-1.3695-0.71166-2.2375-0.99769-4.1625-1.3717-5.8971-2.8236-5.8971-4.9359 0-1.4661 1.0244-2.7271 2.736-3.368 1.2327-0.46154 2.2395-0.41458 3.72 0.17353 0.7114 0.2826 1.6077 0.5106 2.0822 0.52968l0.83316 0.0335-0.0274-0.65192c-0.0151-0.35856-0.0811-2.7432-0.14661-5.2991-0.15798-6.1632 0.0811-7.9106 1.4914-10.901 2.4804-5.2598 6.9272-9.1088 12.334-10.675 2.8513-0.82627 3.9849-0.95415 7.6997-0.86859 3.7675 0.0868 5.3117 0.36222 7.9997 1.427 4.6142 1.8277 8.3396 5.3946 10.567 10.117 1.4138 2.9981 1.6494 4.7318 1.4927 10.985-0.0652 2.5996-0.13128 4.9832-0.14693 5.2969l-0.0285 0.57042 0.69713-0.0442c0.38343-0.0243 1.2471-0.26268 1.9193-0.52969 1.4818-0.58865 2.745-0.63982 4.019-0.16283 1.7116 0.64085 2.736 1.9019 2.736 3.368 0 2.1123-1.7346 3.5642-5.8971 4.9359-1.7769 0.58554-2.8438 1.2639-3.0063 1.9115-0.33817 1.3474 2.5168 6.0948 5.3445 8.8872 2.5983 2.5659 5.5046 4.104 9.3299 4.9378 0.68067 0.14836 1.5152 1.0481 1.6529 1.782 0.27189 1.4493-0.7681 2.9261-2.7503 3.9056-1.1886 0.5873-3.9676 1.3907-6.0189 1.74-0.6055 0.10311-1.1461 0.26055-1.2013 0.34987-0.0552 0.0893-0.23652 0.78545-0.40293 1.547-0.36387 1.6651-0.78471 2.3974-1.6238 2.8254-0.74391 0.37953-1.5599 0.40218-3.3312 0.0925-3.1102-0.54384-5.6006-0.46718-7.4632 0.22974-0.51496 0.19268-2.1976 1.2001-3.7391 2.2388-4.8446 3.2641-6.7766 3.9585-10.963 3.9402-1.8423-8e-3 -2.7629-0.0888-3.736-0.32783zm6.9957-3.162c1.4754-0.37567 3.3518-1.3662 5.7043-3.0112 2.5879-1.8096 4.6481-2.8614 6.2748-3.2036 1.5783-0.332 5.1523-0.32797 7.0082 8e-3 0.76193 0.13789 1.4351 0.25207 1.496 0.25372 0.0609 2e-3 0.19769-0.41871 0.30405-0.93414 0.51681-2.5047 1.2509-3.4696 2.8758-3.78 3.5909-0.68604 6.412-1.4671 6.4039-1.773-2e-3 -0.0608-0.5607-0.28715-1.2424-0.50301-2.8272-0.89526-5.6807-2.7033-8.126-5.1491-1.9895-1.9898-3.5162-4.1054-4.7971-6.6471-1.4401-2.8577-1.614-4.2672-0.73934-5.9932 0.70926-1.3997 2.0006-2.2666 4.9376-3.3149 1.9446-0.69405 3.451-1.4488 3.451-1.7291 0-0.24687-0.59177-0.4878-1.1981-0.4878-0.31219 0-0.90212 0.14338-1.3109 0.31862-1.3168 0.56443-3.1115 0.85424-4.1273 0.66646-1.0667-0.19719-2.0952-0.73866-2.5362-1.3352-0.30999-0.4193-0.31322-0.54462-0.11298-4.3936 0.22886-4.3995 0.13116-8.6817-0.24133-10.576-0.31577-1.6063-1.5714-4.0982-2.9318-5.8187-2.4223-3.0633-5.728-5.0266-10.033-5.9585-2.0407-0.44176-6.106-0.47819-8.149-0.073-4.6586 0.92387-8.0382 2.9436-10.588 6.3276-1.2798 1.6984-2.3944 3.9786-2.6996 5.5227-0.37864 1.9157-0.47475 6.0793-0.24278 10.517 0.23051 4.4102 0.22325 4.463-0.69621 5.0623-1.4998 0.97767-3.5729 1.0533-6.0258 0.21975-1.2481-0.42412-1.6845-0.50772-2.0239-0.38774-0.23801 0.0841-0.46133 0.23905-0.49626 0.34427-0.0994 0.29929 1.29 1.0258 3.4064 1.7811 2.9364 1.048 4.1244 1.8425 4.8934 3.2725 0.83716 1.5568 0.74228 3.0166-0.34767 5.3488-1.3367 2.8602-3.1435 5.3328-5.6636 7.7506-2.406 2.3083-4.9608 3.8911-7.6678 4.7507-0.64827 0.20584-1.18 0.42399-1.1816 0.48478-8e-3 0.30243 3.2291 1.2534 5.7622 1.6927 0.81811 0.1419 1.7206 0.40205 2.0056 0.5781 0.63027 0.38939 1.069 1.2823 1.4524 2.9563 0.15913 0.6947 0.3676 1.2613 0.46326 1.2591 0.0957-2e-3 0.49052-0.077 0.87747-0.16624 1.3385-0.30871 4.2739-0.45595 5.9484-0.29839 2.788 0.26234 4.3088 0.92381 7.8624 3.4198 3.9179 2.752 5.9543 3.4674 9.4438 3.3178 0.8964-0.0384 2.0699-0.18192 2.6077-0.31886z" />
  </g>
</svg>
