<?xml version="1.0" encoding="UTF-8" standalone="no"?>
<svg
   xmlns:dc="http://purl.org/dc/elements/1.1/"
   xmlns:cc="http://creativecommons.org/ns#"
   xmlns:rdf="http://www.w3.org/1999/02/22-rdf-syntax-ns#"
   xmlns:svg="http://www.w3.org/2000/svg"
   xmlns="http://www.w3.org/2000/svg"
   xmlns:sodipodi="http://sodipodi.sourceforge.net/DTD/sodipodi-0.dtd"
   xmlns:inkscape="http://www.inkscape.org/namespaces/inkscape"
   inkscape:version="1.0 (4035a4fb49, 2020-05-01)"
   sodipodi:docname="twitter.svg"
   id="svg1084"
   version="1.1"
   viewBox="0 0 85.372972 70.450263"
   height="70.450264mm"
   width="85.372971mm">
  <defs
     id="defs1078">
    <radialGradient
       id="radialGradient889"
       cx="95.749001"
       cy="179.53999"
       r="52.917"
       gradientTransform="matrix(0.62016,-0.97724794,1.0177,0.52761627,-7.36732,160.49426)"
       gradientUnits="userSpaceOnUse">
      <stop
         stop-color="#ffc84b"
         offset="0"
         id="stop1733" />
      <stop
         stop-color="#ff963e"
         stop-opacity=".49804"
         offset=".8"
         id="stop1735" />
      <stop
         stop-color="#ff6432"
         stop-opacity="0"
         offset="1"
         id="stop1737" />
    </radialGradient>
    <linearGradient
       id="linearGradient1049"
       x1="-29.632999"
       x2="-5.5562"
       y1="52.388"
       y2="118.53"
       gradientTransform="matrix(1,0,0,0.90385492,261.98368,-1.6853312)"
       gradientUnits="userSpaceOnUse">
      <stop
         stop-color="#3264c8"
         offset="0"
         id="stop1740" />
      <stop
         stop-color="#dc1e82"
         offset="1"
         id="stop1742" />
    </linearGradient>
    <linearGradient
       gradientUnits="userSpaceOnUse"
       gradientTransform="matrix(1,0,0,0.90385491,103.23435,35.031884)"
       y2="118.53"
       y1="52.388"
       x2="-5.5562"
       x1="-29.632999"
       id="linearGradient1049-0">
      <stop
         id="stop1740-8"
         offset="0"
         stop-color="#3264c8" />
      <stop
         id="stop1742-1"
         offset="1"
         stop-color="#dc1e82" />
    </linearGradient>
    <linearGradient
       id="linearGradient923"
       x1="-29.632999"
       x2="-5.5562"
       y1="52.388"
       y2="118.53"
       gradientTransform="translate(79.64,-78.581)"
       gradientUnits="userSpaceOnUse">
      <stop
         stop-color="#3264c8"
         offset="0"
         id="stop1954" />
      <stop
         stop-color="#dc1e82"
         offset="1"
         id="stop1956" />
    </linearGradient>
    <radialGradient
       id="radialGradient921"
       cx="95.749001"
       cy="179.53999"
       r="52.917"
       gradientTransform="matrix(0.62016,-1.0812,1.0177,0.58374,-189.71,100.85)"
       gradientUnits="userSpaceOnUse">
      <stop
         stop-color="#ffc84b"
         offset="0"
         id="stop1959" />
      <stop
         stop-color="#ff963e"
         stop-opacity=".49804"
         offset=".8"
         id="stop1961" />
      <stop
         stop-color="#ff6432"
         stop-opacity="0"
         offset="1"
         id="stop1963" />
    </radialGradient>
    <radialGradient
       gradientUnits="userSpaceOnUse"
       gradientTransform="matrix(0.62016,-0.97724794,1.0177,0.52761627,-13.561135,161.53138)"
       r="52.917"
       cy="179.53999"
       cx="95.749001"
       id="radialGradient889-5">
      <stop
         id="stop1733-6"
         offset="0"
         stop-color="#ffc84b" />
      <stop
         id="stop1735-2"
         offset=".8"
         stop-opacity=".49804"
         stop-color="#ff963e" />
      <stop
         id="stop1737-5"
         offset="1"
         stop-opacity="0"
         stop-color="#ff6432" />
    </radialGradient>
  </defs>
  <sodipodi:namedview
     inkscape:object-nodes="true"
     inkscape:window-maximized="1"
     inkscape:window-y="-8"
     inkscape:window-x="1358"
     inkscape:window-height="1057"
     inkscape:window-width="1920"
     inkscape:guide-bbox="true"
     showguides="true"
     showborder="false"
     showgrid="false"
     inkscape:document-rotation="0"
     inkscape:current-layer="layer1"
     inkscape:document-units="px"
     inkscape:cy="189.59652"
     inkscape:cx="255.63452"
     inkscape:zoom="0.5"
     inkscape:pageshadow="2"
     inkscape:pageopacity="0.0"
     borderopacity="1.0"
     bordercolor="#666666"
     pagecolor="#ffffff"
     id="base" />
  <metadata
     id="metadata1081">
    <rdf:RDF>
      <cc:Work
         rdf:about="">
        <dc:format>image/svg+xml</dc:format>
        <dc:type
           rdf:resource="http://purl.org/dc/dcmitype/StillImage" />
        <dc:title></dc:title>
      </cc:Work>
    </rdf:RDF>
  </metadata>
  <g
     transform="translate(-85.633644,-148.4872)"
     id="layer1"
     inkscape:groupmode="layer"
     inkscape:label="Layer 1">
    <path
       style="fill:#00ccff;stroke-width:0.168495"
       d="m 108.31211,218.76316 c -7.28497,-0.58233 -15.128878,-3.11049 -21.308986,-6.86804 l -1.36948,-0.83265 3.02847,0.0722 c 1.795668,0.0428 3.751398,-0.0116 4.804438,-0.13404 6.09864,-0.70848 11.661338,-2.8497 16.688708,-6.42385 l 1.34047,-0.95299 -1.2567,-0.12495 c -6.16197,-0.61264 -11.442748,-4.25247 -14.076518,-9.70238 -1.2921,-2.67366 -1.41328,-2.44579 1.24097,-2.33326 1.45804,0.0618 2.719238,0.0205 3.558158,-0.11623 2.04251,-0.33318 2.13273,-0.41737 0.80247,-0.74878 -1.765468,-0.43985 -4.630208,-1.93441 -6.264818,-3.26845 -3.29634,-2.69019 -5.57915,-6.55793 -6.284438,-10.64771 -0.25112,-1.4561 -0.34355,-3.30265 -0.16533,-3.30265 0.0498,0 0.40645,0.16302 0.79268,0.36227 1.583288,0.81678 4.841598,1.67842 6.298508,1.66559 l 0.60983,-0.005 -0.50268,-0.36086 c -1.04908,-0.75307 -3.5844,-3.491 -4.3453,-4.69259 -1.86806,-2.9499 -2.612568,-5.42624 -2.731068,-9.08377 -0.0698,-2.15361 -0.0293,-2.78724 0.26519,-4.15119 0.43667,-2.02242 1.736908,-5.34517 2.039778,-5.21264 0.0563,0.0246 0.63374,0.65479 1.28312,1.40031 5.08075,5.833 11.919028,10.68318 19.071258,13.52669 4.71602,1.87495 9.16609,2.91076 14.71578,3.42533 l 1.14348,0.10602 -0.13813,-0.81965 c -0.0759,-0.45082 -0.13091,-2.07772 -0.12205,-3.61537 0.0131,-2.2837 0.081,-3.03658 0.37068,-4.11097 1.85869,-6.89398 7.37903,-11.94771 14.28863,-13.08084 1.99612,-0.32735 3.50531,-0.32735 5.50145,0 3.51494,0.57643 6.67189,2.12104 9.09785,4.45137 l 0.95724,0.9195 1.22102,-0.29223 c 2.36082,-0.56502 5.34979,-1.66271 7.60027,-2.79116 2.58917,-1.29828 2.54936,-1.31947 1.56408,0.83213 -1.15229,2.51628 -3.67508,5.55542 -5.89073,7.09638 -0.43775,0.30445 -0.79591,0.57843 -0.79591,0.60885 0,0.11039 3.30728,-0.5496 4.88831,-0.97551 0.89151,-0.24014 2.31646,-0.70826 3.16656,-1.04026 0.8501,-0.33199 1.57265,-0.57633 1.60562,-0.54298 0.0329,0.0333 -0.43879,0.72931 -1.0484,1.54655 -1.46001,1.95729 -4.31523,4.93092 -6.04939,6.30022 l -1.38979,1.09739 -0.002,1.98168 c -0.0141,16.11675 -7.67891,31.7874 -20.20268,41.30415 -9.44175,7.17472 -21.43844,10.53889 -34.00091,9.53468 z"
       id="path1879" />
  </g>
</svg>
