<?xml version="1.0" encoding="UTF-8" standalone="no"?>
<svg
   xmlns:dc="http://purl.org/dc/elements/1.1/"
   xmlns:cc="http://creativecommons.org/ns#"
   xmlns:rdf="http://www.w3.org/1999/02/22-rdf-syntax-ns#"
   xmlns:svg="http://www.w3.org/2000/svg"
   xmlns="http://www.w3.org/2000/svg"
   xmlns:sodipodi="http://sodipodi.sourceforge.net/DTD/sodipodi-0.dtd"
   xmlns:inkscape="http://www.inkscape.org/namespaces/inkscape"
   inkscape:version="1.0 (4035a4fb49, 2020-05-01)"
   sodipodi:docname="twitter-white.svg"
   id="svg1084"
   version="1.1"
   viewBox="0 0 105.83201 95.656791"
   height="95.656792mm"
   width="105.83201mm">
  <defs
     id="defs1078">
    <radialGradient
       id="radialGradient889"
       cx="95.749001"
       cy="179.53999"
       r="52.917"
       gradientTransform="matrix(0.62016,-0.97724794,1.0177,0.52761627,-7.36732,160.49426)"
       gradientUnits="userSpaceOnUse">
      <stop
         stop-color="#ffc84b"
         offset="0"
         id="stop1733" />
      <stop
         stop-color="#ff963e"
         stop-opacity=".49804"
         offset=".8"
         id="stop1735" />
      <stop
         stop-color="#ff6432"
         stop-opacity="0"
         offset="1"
         id="stop1737" />
    </radialGradient>
    <linearGradient
       id="linearGradient1049"
       x1="-29.632999"
       x2="-5.5562"
       y1="52.388"
       y2="118.53"
       gradientTransform="matrix(1,0,0,0.90385492,261.98368,-1.6853312)"
       gradientUnits="userSpaceOnUse">
      <stop
         stop-color="#3264c8"
         offset="0"
         id="stop1740" />
      <stop
         stop-color="#dc1e82"
         offset="1"
         id="stop1742" />
    </linearGradient>
    <linearGradient
       gradientUnits="userSpaceOnUse"
       gradientTransform="matrix(1,0,0,0.90385491,103.23435,35.031884)"
       y2="118.53"
       y1="52.388"
       x2="-5.5562"
       x1="-29.632999"
       id="linearGradient1049-0">
      <stop
         id="stop1740-8"
         offset="0"
         stop-color="#3264c8" />
      <stop
         id="stop1742-1"
         offset="1"
         stop-color="#dc1e82" />
    </linearGradient>
  </defs>
  <sodipodi:namedview
     inkscape:window-maximized="1"
     inkscape:window-y="-8"
     inkscape:window-x="1358"
     inkscape:window-height="1057"
     inkscape:window-width="1920"
     inkscape:guide-bbox="true"
     showguides="true"
     showborder="false"
     showgrid="false"
     inkscape:document-rotation="0"
     inkscape:current-layer="layer1"
     inkscape:document-units="px"
     inkscape:cy="45.472891"
     inkscape:cx="935.65814"
     inkscape:zoom="0.5"
     inkscape:pageshadow="2"
     inkscape:pageopacity="0.0"
     borderopacity="1.0"
     bordercolor="#666666"
     pagecolor="#ffffff"
     id="base" />
  <metadata
     id="metadata1081">
    <rdf:RDF>
      <cc:Work
         rdf:about="">
        <dc:format>image/svg+xml</dc:format>
        <dc:type
           rdf:resource="http://purl.org/dc/dcmitype/StillImage" />
        <dc:title></dc:title>
      </cc:Work>
    </rdf:RDF>
  </metadata>
  <g
     transform="translate(-85.507513,-68.511635)"
     id="layer1"
     inkscape:groupmode="layer"
     inkscape:label="Layer 1">
    <g
       transform="translate(0,-0.3669425)"
       id="g1890">
      <path
         style="fill:#00ccff"
         d="m 109.31951,68.878577 h 58.20801 c 13.192,0 23.812,9.59894 23.812,21.52259 v 52.611603 c 0,11.92366 -10.62,21.5226 -23.812,21.5226 h -58.20801 c -13.191997,0 -23.811997,-9.59894 -23.811997,-21.5226 V 90.401167 c 0,-11.92365 10.62,-21.52259 23.811997,-21.52259 z"
         fill="url(#linearGradient1049)"
         stroke-width="0.25154"
         id="path1749-6" />
      <path
         id="path1879"
         d="m 118.4155,151.7578 c -7.28497,-0.58233 -15.12888,-3.11049 -21.308988,-6.86804 l -1.36948,-0.83265 3.02847,0.0722 c 1.795668,0.0428 3.751398,-0.0116 4.804438,-0.13404 6.09864,-0.70848 11.66134,-2.8497 16.68871,-6.42385 l 1.34047,-0.95299 -1.2567,-0.12495 c -6.16197,-0.61264 -11.44275,-4.25247 -14.07652,-9.70238 -1.2921,-2.67366 -1.41328,-2.44579 1.24097,-2.33326 1.45804,0.0618 2.71924,0.0205 3.55816,-0.11623 2.04251,-0.33318 2.13273,-0.41737 0.80247,-0.74878 -1.76547,-0.43985 -4.63021,-1.93441 -6.26482,-3.26845 -3.29634,-2.69019 -5.57915,-6.55793 -6.284438,-10.64771 -0.25112,-1.4561 -0.34355,-3.30265 -0.16533,-3.30265 0.0498,0 0.40645,0.16302 0.79268,0.36227 1.583288,0.81678 4.841598,1.67842 6.298508,1.66559 l 0.60983,-0.005 -0.50268,-0.36086 c -1.04908,-0.75307 -3.5844,-3.491 -4.3453,-4.69259 -1.86806,-2.9499 -2.612568,-5.426233 -2.731068,-9.083763 -0.0698,-2.15361 -0.0293,-2.78724 0.26519,-4.15119 0.43667,-2.02242 1.736908,-5.34517 2.039778,-5.21264 0.0563,0.0246 0.63374,0.65479 1.28312,1.40031 5.08075,5.833 11.91903,10.68318 19.07126,13.52669 4.71602,1.874943 9.16609,2.910753 14.71578,3.425323 l 1.14348,0.10602 -0.13813,-0.81965 c -0.0759,-0.45082 -0.13091,-2.07772 -0.12205,-3.615363 0.0131,-2.2837 0.081,-3.03658 0.37068,-4.11097 1.85869,-6.89398 7.37903,-11.94771 14.28863,-13.08084 1.99612,-0.32735 3.50531,-0.32735 5.50145,0 3.51494,0.57643 6.67189,2.12104 9.09785,4.45137 l 0.95724,0.9195 1.22102,-0.29223 c 2.36082,-0.56502 5.34979,-1.66271 7.60027,-2.79116 2.58917,-1.29828 2.54936,-1.31947 1.56408,0.83213 -1.15229,2.51628 -3.67508,5.55542 -5.89073,7.09638 -0.43775,0.30445 -0.79591,0.57843 -0.79591,0.60885 0,0.11039 3.30728,-0.5496 4.88831,-0.97551 0.89151,-0.24014 2.31646,-0.70826 3.16656,-1.04026 0.8501,-0.33199 1.57265,-0.57633 1.60562,-0.54298 0.0329,0.0333 -0.43879,0.72931 -1.0484,1.54655 -1.46001,1.95729 -4.31523,4.93092 -6.04939,6.30022 l -1.38979,1.09739 -0.002,1.981673 c -0.0141,16.11675 -7.67891,31.7874 -20.20268,41.30415 -9.44175,7.17472 -21.43844,10.53889 -34.00091,9.53468 z"
         style="fill:#ffffff;stroke-width:0.168495" />
    </g>
  </g>
</svg>
